{
  "accessors": [
    {
      "bufferView": 2,
      "componentType": 5126,
      "count": 847,
      "max": [
        106.99577331542969,
        27.2416934967041,
        27.24169158935547
      ],
      "min": [
        -106.99577331542969,
        -27.2416934967041,
        -27.24169158935547
      ],
      "type": "VEC3"
    },
    {
      "bufferView": 2,
      "byteOffset": 10164,
      "componentType": 5126,
      "count": 847,
      "max": [
        1.0,
        0.9924755692481995,
        0.9924758076667786
      ],
      "min": [
        -0.9945141077041626,
        -0.9924755096435547,
        -0.9924759864807129
      ],
      "type": "VEC3"
    },
    {
      "bufferView": 3,
      "componentType": 5126,
      "count": 847,
      "max": [
        1.0,
        0.9978460669517517,
        1.0,
        1.0
      ],
      "min": [
        -0.9966062903404236,
        -0.9998520612716675,
        -0.9813387393951416,
        -1.0
      ],
      "type": "VEC4"
    },
    {
      "bufferView": 1,
      "componentType": 5126,
      "count": 847,
      "max": [
        0.9923731088638306,
        0.9905535578727722
      ],
      "min": [
        0.006014212500303984,
        0.01090847235172987
      ],
      "type": "VEC2"
    },
    {
      "bufferView": 0,
      "componentType": 5125,
      "count": 4356,
      "type": "SCALAR"
    }
  ],
  "asset": {
    "extras": {
      "author": "Yogensia (https://sketchfab.com/yogensia)",
      "license": "CC-BY-NC-SA-4.0 (http://creativecommons.org/licenses/by-nc-sa/4.0/)",
      "source": "https://sketchfab.com/3d-models/plunger-3822d0f99af042ecb397d3e1a43dc467",
      "title": "Plunger"
    },
    "generator": "Sketchfab-12.67.0",
    "version": "2.0"
  },
  "bufferViews": [
    {
      "buffer": 0,
      "byteLength": 17424,
      "name": "floatBufferViews",
      "target": 34963
    },
    {
      "buffer": 0,
      "byteLength": 6776,
      "byteOffset": 17424,
      "byteStride": 8,
      "name": "floatBufferViews",
      "target": 34962
    },
    {
      "buffer": 0,
      "byteLength": 20328,
      "byteOffset": 24200,
      "byteStride": 12,
      "name": "floatBufferViews",
      "target": 34962
    },
    {
      "buffer": 0,
      "byteLength": 13552,
      "byteOffset": 44528,
      "byteStride": 16,
      "name": "floatBufferViews",
      "target": 34962
    }
  ],
  "buffers": [
    {
      "byteLength": 58080,
      "uri": "scene.bin"
    }
  ],
  "extensionsRequired": [
    "KHR_materials_pbrSpecularGlossiness"
  ],
  "extensionsUsed": [
    "KHR_materials_pbrSpecularGlossiness"
  ],
  "images": [
    {
      "uri": "textures/02_-_Default_diffuse.png"
    },
    {
      "uri": "textures/02_-_Default_specularGlossiness.png"
    },
    {
      "uri": "textures/02_-_Default_normal.png"
    }
  ],
  "materials": [
    {
      "extensions": {
        "KHR_materials_pbrSpecularGlossiness": {
          "diffuseFactor": [
            1.0,
            1.0,
            1.0,
            1.0
          ],
          "diffuseTexture": {
            "index": 0
          },
          "glossinessFactor": 1.0,
          "specularFactor": [
            1.0,
            1.0,
            1.0
          ],
          "specularGlossinessTexture": {
            "index": 1
          }
        }
      },
      "name": "02_-_Default",
      "normalTexture": {
        "index": 2
      }
    }
  ],
  "meshes": [
    {
      "name": "LowPoly_02 - Default_0",
      "primitives": [
        {
          "attributes": {
            "NORMAL": 1,
            "POSITION": 0,
            "TANGENT": 2,
            "TEXCOORD_0": 3
          },
          "indices": 4,
          "material": 0,
          "mode": 4
        }
      ]
    }
  ],
  "nodes": [
    {
      "children": [
        1
      ],
      "matrix": [
        0.015097995881422244,
        -0.006611358712800552,
        -1.4680165334014622e-18,
        0.0,
        0.001192032965330686,
        0.002722180122828124,
        0.01621198156183301,
        0.0,
        -0.006503008758224349,
        -0.014850563252811977,
        0.002971734756170321,
        0.0,
        -0.1164063885807991,
        -0.5563268065452576,
        0.0032474468462167934,
        1.0
      ],
      "name": "Sketchfab_model"
    },
    {
      "children": [
        2
      ],
      "matrix": [
        1.0,
        0.0,
        0.0,
        0.0,
        0.0,
        0.0,
        1.0,
        0.0,
        0.0,
        -1.0,
        0.0,
        0.0,
        0.0,
        0.0,
        0.0,
        1.0
      ],
      "name": "4fd3ff3bb5b2419cbb45b9380e83e7cb.fbx"
    },
    {
      "children": [
        3
      ],
      "name": "Object_2"
    },
    {
      "children": [
        4
      ],
      "name": "RootNode"
    },
    {
      "children": [
        5
      ],
      "name": "LowPoly",
      "rotation": [
        -0.7071068286895752,
        -0.0,
        0.0,
        0.7071068286895752
      ],
      "translation": [
        -1.3023414611816406,
        -0.01775900274515152,
        2.1235946405795403e-06
      ]
    },
    {
      "mesh": 0,
      "name": "LowPoly_02 - Default_0"
    }
  ],
  "samplers": [
    {
      "magFilter": 9729,
      "minFilter": 9987,
      "wrapS": 10497,
      "wrapT": 10497
    }
  ],
  "scene": 0,
  "scenes": [
    {
      "name": "Sketchfab_Scene",
      "nodes": [
        0
      ]
    }
  ],
  "textures": [
    {
      "sampler": 0,
      "source": 0
    },
    {
      "sampler": 0,
      "source": 1
    },
    {
      "sampler": 0,
      "source": 2
    }
  ]
}
